<svg xmlns="http://www.w3.org/2000/svg" viewBox="0 0 16.02 21.18"><defs><style>.cls-1{fill:#fff;stroke:#231f20;stroke-miterlimit:10;}</style></defs><g id="Layer_2" data-name="Layer 2"><g id="Layer_1-2" data-name="Layer 1"><path class="cls-1" d="M7.27,21.18V5.75"/><path class="cls-1" d="M1.9,10.67A4.73,4.73,0,0,1,.6,6.6,4.6,4.6,0,0,1,5.49,3.31"/><path class="cls-1" d="M4.94,3.75A3.94,3.94,0,0,1,9.81.64a4,4,0,0,1,2.6,5.11"/><path class="cls-1" d="M11.2,5.75a4.76,4.76,0,0,1,3.77,2,4.6,4.6,0,0,1-1.24,5.77"/><path class="cls-1" d="M3.54,6.13a2.64,2.64,0,0,0,.25,2.54c.48.5,1.1.45,1.8.8a3.17,3.17,0,0,1,1.68,2.67"/><path class="cls-1" d="M7.26,13.83c.12-.8.42-1.86,1.29-2.19.65-.26,1.19,0,2,0A3.22,3.22,0,0,0,13.18,10"/></g></g></svg>